<svg id="svg" version="1.1" xmlns="http://www.w3.org/2000/svg" xmlns:xlink="http://www.w3.org/1999/xlink" width="400" height="400" viewBox="0, 0, 400,400"><g id="svgg"><path id="path0" d="M119.531 66.828 C 114.225 67.855,113.580 68.397,91.733 90.206 C 70.272 111.630,69.089 112.991,67.467 118.148 L 66.602 120.898 66.602 195.703 L 66.602 270.508 67.702 273.633 C 69.530 278.822,70.413 279.844,90.595 300.131 C 109.988 319.626,112.479 321.861,116.941 323.777 L 119.336 324.805 199.023 324.916 C 285.590 325.037,280.103 325.177,284.961 322.729 C 288.489 320.951,329.123 280.654,330.992 277.080 C 333.774 271.757,333.594 277.355,333.594 196.252 C 333.594 115.041,333.782 120.581,330.808 114.453 C 329.214 111.170,328.976 110.912,309.422 91.293 C 288.903 70.705,287.222 69.225,282.422 67.509 L 279.883 66.602 200.586 66.545 C 156.902 66.514,120.500 66.641,119.531 66.828 M273.336 92.345 C 276.290 93.982,305.984 123.959,307.617 126.953 L 308.789 129.102 308.892 195.461 L 308.995 261.820 307.995 264.015 C 306.693 266.871,276.868 297.028,273.633 298.759 L 271.680 299.805 200.000 299.805 L 128.320 299.805 126.758 298.954 C 123.935 297.417,93.177 266.180,92.017 263.672 L 91.023 261.523 91.019 195.872 C 91.016 137.151,91.081 129.996,91.634 128.098 C 92.474 125.212,123.620 93.740,127.344 92.014 L 129.492 91.019 200.391 91.115 L 271.289 91.211 273.336 92.345 M185.061 122.465 C 184.472 122.797,182.908 124.690,181.586 126.671 C 180.263 128.652,179.137 130.330,179.082 130.398 C 179.027 130.467,177.339 129.728,175.331 128.756 C 152.513 117.712,125.587 129.906,119.295 154.132 C 115.864 167.343,118.897 179.132,124.925 176.015 C 127.757 174.551,127.995 173.841,128.239 166.147 C 128.556 156.128,130.084 151.292,134.790 145.405 C 142.882 135.284,158.723 131.784,171.166 137.368 C 173.959 138.622,173.984 138.273,170.764 143.079 C 165.798 150.490,155.136 167.104,154.323 168.699 C 152.585 172.106,153.823 175.312,157.115 175.930 C 160.578 176.580,160.355 176.857,175.992 152.451 L 181.055 144.550 182.336 146.005 C 186.267 150.473,188.281 157.316,188.281 166.207 C 188.281 173.840,189.369 176.174,192.924 176.170 C 197.173 176.166,198.205 173.876,197.941 165.039 C 197.614 154.093,194.630 145.965,188.229 138.582 L 186.288 136.344 187.800 134.090 C 192.575 126.973,193.045 125.290,190.867 123.112 C 189.659 121.903,186.652 121.569,185.061 122.465 M263.477 122.244 C 261.014 123.252,261.144 121.864,261.027 148.430 C 260.959 163.791,261.062 172.932,261.310 173.585 C 262.356 176.336,268.317 177.246,270.795 175.032 L 272.070 173.893 272.177 149.548 C 272.291 123.383,272.298 123.488,270.277 122.443 C 269.095 121.831,264.792 121.706,263.477 122.244 M244.280 136.325 C 242.172 137.175,242.188 137.034,242.188 155.985 L 242.188 173.516 243.516 174.844 C 244.789 176.117,244.964 176.172,247.760 176.172 C 253.650 176.172,253.566 176.482,253.430 155.326 L 253.320 138.217 252.045 137.077 C 250.700 135.876,246.420 135.461,244.280 136.325 M224.554 150.553 C 223.187 151.919,223.056 153.047,223.052 163.477 C 223.047 175.291,223.437 176.153,228.790 176.166 C 234.250 176.179,234.375 175.873,234.375 162.541 L 234.375 151.997 233.433 150.901 C 232.001 149.236,226.102 149.005,224.554 150.553 M131.944 216.981 C 117.229 221.054,119.359 241.800,134.696 243.779 C 138.580 244.280,262.491 244.230,265.625 243.727 C 279.901 241.432,282.871 223.679,269.990 217.641 L 267.773 216.602 200.781 216.536 C 146.659 216.483,133.435 216.569,131.944 216.981 " stroke="none" fill="black" fill-rule="evenodd"></path></g></svg>