<?xml version="1.0" encoding="utf-8"?>
<svg width="800px" height="800px" viewBox="0 0 32 32" xmlns="http://www.w3.org/2000/svg">
  <title>custom_icon</title>
  <path d="M6.667,13.6c0-2.533,2-4.533,4.533-4.533c2.533,0,4.533,2,4.533,4.533c0,0.933-0.8,1.6-1.6,1.6
    c-0.933,0-1.6-0.8-1.6-1.6c0-0.667-0.533-1.2-1.2-1.2c-0.667,0-1.2,0.533-1.2,1.2c0,0.933-0.8,1.6-1.6,1.6
    S6.667,14.533,6.667,13.6 
    M25.333,21.2c0,0.933-0.8,1.6-1.6,1.6H8.533c-0.933,0-1.6-0.8-1.6-1.6c0-0.933,0.8-1.6,1.6-1.6h15.2
    C24.533,19.6,25.333,20.267,25.333,21.2 
    M18.267,14.533c-0.533-0.8-0.267-1.733,0.4-2.267l3.867-2.533c0.8-0.533,1.733-0.267,2.267,0.4
    c0.533,0.8,0.267,1.733-0.4,2.267l-3.867,2.533
    c-0.267,0.133-0.667,0.267-0.933,0.267C19.067,15.333,18.533,15.067,18.267,14.533 
    M28.667,24.667c0,0.267-0.133,0.667-0.4,0.8l-2.8,2.8c-0.267,0.267-0.533,0.4-0.8,0.4H7.333
    c-0.267,0-0.667-0.133-0.8-0.4l-2.8-2.8c-0.267-0.267-0.4-0.533-0.4-0.8V7.333
    c0-0.267,0.133-0.667,0.4-0.8l2.8-2.8C6.933,3.467,7.2,3.333,7.6,3.333h17.333
    c0.267,0,0.667,0.133,0.8,0.4l2.8,2.8c0.267,0.267,0.4,0.533,0.4,0.8V24.667z 
    M31.067,4.533l-3.733-3.733C26.8,0.267,26.133,0,25.333,0H6.667C5.867,0,5.2,0.267,4.667,0.8L0.933,4.533
    C0.4,5.067,0,5.733,0,6.533v18.933c0,0.8,0.267,1.6,0.933,2.133l3.733,3.733
    C5.2,31.467,5.867,32,6.667,32h18.667c0.8,0,1.6-0.267,2.133-0.8l3.733-3.733
    c0.533-0.533,0.933-1.333,0.933-2.133V6.533C32,5.733,31.733,5.067,31.067,4.533"
    fill="#000"/>
</svg>
